REM DIRINDEX 1\6,1\2\7,1\2\8,1\2\9,1\3\10,1\3\11,1\4\12,1\4\13,1\4\14,1\5\15,1\5\16,1\5\17
REM DIRNAME folder01,folder02,folder03,folder04,folder05,folder06,folder07,folder08,folder09,folder10,folder11,folder12,folder13,folder14,folder15,folder16,folder17
TITLE ""
FILE "P2Q_t_0304-0321.mp3" MP3
  TRACK 01 AUDIO
    TITLE "10:cjc040_2258"
    INDEX 01 00:00:00
  TRACK 02 AUDIO
    TITLE "0:"
    INDEX 01 00:01:09
  TRACK 03 AUDIO
    TITLE "11:cjc040_2259"
    INDEX 01 00:01:68
  TRACK 04 AUDIO
    TITLE "0:"
    INDEX 01 00:04:68
  TRACK 05 AUDIO
    TITLE "10:cjc040_2260"
    INDEX 01 00:05:40
  TRACK 06 AUDIO
    TITLE "0:"
    INDEX 01 00:06:57
  TRACK 07 AUDIO
    TITLE "11:cjc040_2261"
    INDEX 01 00:07:33
  TRACK 08 AUDIO
    TITLE "0:"
    INDEX 01 00:08:52
  TRACK 09 AUDIO
    TITLE "10:cjc040_2262"
    INDEX 01 00:09:34
  TRACK 10 AUDIO
    TITLE "0:"
    INDEX 01 00:10:41
  TRACK 11 AUDIO
    TITLE "11:cjc040_2263"
    INDEX 01 00:11:21
  TRACK 12 AUDIO
    TITLE "0:"
    INDEX 01 00:13:41
  TRACK 13 AUDIO
    TITLE "10:cjc040_2264"
    INDEX 01 00:14:23
  TRACK 14 AUDIO
    TITLE "0:"
    INDEX 01 00:15:32
  TRACK 15 AUDIO
    TITLE "11:cjc040_2265"
    INDEX 01 00:16:10
  TRACK 16 AUDIO
    TITLE "0:"
    INDEX 01 00:17:12
  TRACK 17 AUDIO
    TITLE "10:cjc040_2266"
    INDEX 01 00:17:69
  TRACK 18 AUDIO
    TITLE "0:"
    INDEX 01 00:19:07
  TRACK 19 AUDIO
    TITLE "11:cjc040_2267"
    INDEX 01 00:19:62
  TRACK 20 AUDIO
    TITLE "0:"
    INDEX 01 00:20:73
  TRACK 21 AUDIO
    TITLE "10:cjc040_2268"
    INDEX 01 00:21:55
  TRACK 22 AUDIO
    TITLE "0:"
    INDEX 01 00:23:03
  TRACK 23 AUDIO
    TITLE "11:cjc040_2269"
    INDEX 01 00:23:57
  TRACK 24 AUDIO
    TITLE "0:"
    INDEX 01 00:25:07
  TRACK 25 AUDIO
    TITLE "10:cjc040_2270"
    INDEX 01 00:25:62
  TRACK 26 AUDIO
    TITLE "0:"
    INDEX 01 00:26:73
  TRACK 27 AUDIO
    TITLE "11:cjc040_2271"
    INDEX 01 00:27:55
  TRACK 28 AUDIO
    TITLE "0:"
    INDEX 01 00:31:57
  TRACK 29 AUDIO
    TITLE "10:cjc040_2272"
    INDEX 01 00:32:37
  TRACK 30 AUDIO
    TITLE "0:"
    INDEX 01 00:33:62
  TRACK 31 AUDIO
    TITLE "11:cjc040_2273"
    INDEX 01 00:34:40
  TRACK 32 AUDIO
    TITLE "0:"
    INDEX 01 00:36:50
  TRACK 33 AUDIO
    TITLE "10:cjc040_2274"
    INDEX 01 00:37:28
  TRACK 34 AUDIO
    TITLE "0:"
    INDEX 01 00:38:35
  TRACK 35 AUDIO
    TITLE "11:cjc040_2275"
    INDEX 01 00:39:13
  TRACK 36 AUDIO
    TITLE "0:"
    INDEX 01 00:43:17
  TRACK 37 AUDIO
    TITLE "10:cjc040_2276"
    INDEX 01 00:44:03
  TRACK 38 AUDIO
    TITLE "0:"
    INDEX 01 00:45:14
  TRACK 39 AUDIO
    TITLE "11:cjc040_2277"
    INDEX 01 00:46:00
  TRACK 40 AUDIO
    TITLE "0:"
    INDEX 01 00:47:15
  TRACK 41 AUDIO
    TITLE "10:cjc040_2278"
    INDEX 01 00:47:68
  TRACK 42 AUDIO
    TITLE "0:"
    INDEX 01 00:49:08
  TRACK 43 AUDIO
    TITLE "11:cjc040_2279"
    INDEX 01 00:49:61
  TRACK 44 AUDIO
    TITLE "0:"
    INDEX 01 00:51:09
  TRACK 45 AUDIO
    TITLE "10:cjc040_2280"
    INDEX 01 00:51:63
  TRACK 46 AUDIO
    TITLE "0:"
    INDEX 01 00:53:00
  TRACK 47 AUDIO
    TITLE "11:cjc040_2281"
    INDEX 01 00:53:57
  TRACK 48 AUDIO
    TITLE "0:"
    INDEX 01 00:56:37
  TRACK 49 AUDIO
    TITLE "10:cjc040_2282"
    INDEX 01 00:57:15
  TRACK 50 AUDIO
    TITLE "0:"
    INDEX 01 00:58:22
  TRACK 51 AUDIO
    TITLE "11:cjc040_2283"
    INDEX 01 00:59:02
  TRACK 52 AUDIO
    TITLE "0:"
    INDEX 01 01:01:21
  TRACK 53 AUDIO
    TITLE "10:cjc040_2284"
    INDEX 01 01:02:06
  TRACK 54 AUDIO
    TITLE "0:"
    INDEX 01 01:03:26
  TRACK 55 AUDIO
    TITLE "11:cjc040_2285"
    INDEX 01 01:04:11
  TRACK 56 AUDIO
    TITLE "0:"
    INDEX 01 01:06:34
  TRACK 57 AUDIO
    TITLE "10:cjc040_2286"
    INDEX 01 01:07:19
  TRACK 58 AUDIO
    TITLE "0:"
    INDEX 01 01:08:29
  TRACK 59 AUDIO
    TITLE "11:cjc040_2287"
    INDEX 01 01:09:14
  TRACK 60 AUDIO
    TITLE "0:"
    INDEX 01 01:10:26
  TRACK 61 AUDIO
    TITLE "10:cjc040_2288"
    INDEX 01 01:11:09
  TRACK 62 AUDIO
    TITLE "0:"
    INDEX 01 01:12:17
  TRACK 63 AUDIO
    TITLE "11:cjc040_2289"
    INDEX 01 01:12:70
  TRACK 64 AUDIO
    TITLE "0:"
    INDEX 01 01:14:21
  TRACK 65 AUDIO
    TITLE "10:cjc040_2290"
    INDEX 01 01:14:70
  TRACK 66 AUDIO
    TITLE "0:"
    INDEX 01 01:16:18
  TRACK 67 AUDIO
    TITLE "11:cjc040_2291"
    INDEX 01 01:16:71
  TRACK 68 AUDIO
    TITLE "0:"
    INDEX 01 01:21:74
  TRACK 69 AUDIO
    TITLE "10:cjc040_2292"
    INDEX 01 01:22:48
  TRACK 70 AUDIO
    TITLE "0:"
    INDEX 01 01:23:71
  TRACK 71 AUDIO
    TITLE "11:cjc040_2293"
    INDEX 01 01:24:45
  TRACK 72 AUDIO
    TITLE "0:"
    INDEX 01 01:27:08
